<svg xmlns="http://www.w3.org/2000/svg" xmlns:xlink="http://www.w3.org/1999/xlink" width="500" zoomAndPan="magnify" viewBox="0 0 375 374.999991" height="500" preserveAspectRatio="xMidYMid meet" version="1.0"><defs><clipPath id="92d6d2979b"><path d="M 112.5 112.59375 L 262.5 112.59375 L 262.5 262.59375 L 112.5 262.59375 Z M 112.5 112.59375 " clip-rule="nonzero"/></clipPath></defs><path fill="#ffffff" d="M 196.277344 119.582031 L 196.277344 154.746094 C 196.277344 155.429688 196.554688 156.042969 197.003906 156.492188 C 197.445312 156.9375 198.066406 157.214844 198.746094 157.214844 L 212.738281 157.214844 C 213.417969 157.214844 214.035156 156.9375 214.480469 156.492188 C 214.925781 156.042969 215.203125 155.429688 215.203125 154.746094 L 215.203125 119.582031 C 215.203125 118.898438 214.925781 118.28125 214.480469 117.835938 C 214.035156 117.386719 213.417969 117.113281 212.738281 117.113281 L 198.746094 117.113281 C 198.066406 117.113281 197.449219 117.386719 197.003906 117.835938 C 196.554688 118.28125 196.277344 118.898438 196.277344 119.582031 " fill-opacity="1" fill-rule="evenodd"/><g clip-path="url(#92d6d2979b)"><path fill="#ffffff" d="M 118.855469 262.609375 L 256.160156 262.609375 C 259.605469 262.609375 262.421875 259.789062 262.421875 256.339844 L 262.421875 131.417969 L 243.625 112.59375 L 222.558594 112.59375 L 222.558594 161.730469 L 152.453125 161.730469 L 152.453125 112.59375 L 118.855469 112.59375 C 115.410156 112.59375 112.59375 115.414062 112.59375 118.863281 L 112.59375 256.339844 C 112.59375 259.789062 115.410156 262.609375 118.855469 262.609375 Z M 149.21875 195.09375 L 225.792969 195.09375 C 228.953125 195.09375 231.539062 197.683594 231.539062 200.847656 L 231.539062 244.945312 C 231.539062 248.105469 228.953125 250.695312 225.792969 250.695312 L 149.21875 250.695312 C 146.0625 250.695312 143.476562 248.105469 143.476562 244.945312 L 143.476562 200.847656 C 143.476562 197.683594 146.0625 195.09375 149.21875 195.09375 " fill-opacity="1" fill-rule="evenodd"/></g></svg>