<svg xmlns="http://www.w3.org/2000/svg" xmlns:xlink="http://www.w3.org/1999/xlink" width="500" zoomAndPan="magnify" viewBox="0 0 375 374.999991" height="500" preserveAspectRatio="xMidYMid meet" version="1.0"><defs><clipPath id="d3f16c7f8e"><path d="M 123.46875 112.5 L 251.71875 112.5 L 251.71875 262.5 L 123.46875 262.5 Z M 123.46875 112.5 " clip-rule="nonzero"/></clipPath></defs><g clip-path="url(#d3f16c7f8e)"><path fill="#ffffff" d="M 187.59375 262.464844 C 187.160156 262.457031 186.742188 262.375 186.34375 262.214844 C 124.6875 235.226562 123.5 142.648438 123.5 138.710938 C 123.5 138.296875 123.578125 137.898438 123.738281 137.515625 C 123.898438 137.132812 124.121094 136.796875 124.417969 136.503906 C 124.710938 136.210938 125.046875 135.984375 125.429688 135.824219 C 125.8125 135.667969 126.214844 135.585938 126.628906 135.585938 C 157.5 135.433594 185.058594 113.441406 185.308594 113.222656 C 185.875 112.769531 186.523438 112.539062 187.25 112.535156 L 187.9375 112.535156 C 188.675781 112.535156 189.332031 112.761719 189.910156 113.222656 C 190.160156 113.441406 217.71875 135.433594 248.589844 135.585938 C 249.003906 135.585938 249.40625 135.667969 249.789062 135.824219 C 250.171875 135.984375 250.507812 136.210938 250.800781 136.503906 C 251.097656 136.796875 251.320312 137.132812 251.480469 137.515625 C 251.640625 137.898438 251.71875 138.296875 251.71875 138.710938 C 251.71875 142.648438 250.53125 235.226562 188.875 262.214844 C 188.464844 262.378906 188.039062 262.460938 187.59375 262.464844 Z M 129.851562 141.742188 C 130.601562 157.796875 136.855469 232.570312 187.59375 255.902344 C 238.332031 232.570312 244.585938 157.796875 245.335938 141.742188 C 217.652344 140.398438 193.851562 124.09375 187.59375 119.347656 C 181.335938 124.09375 157.53125 140.398438 129.851562 141.742188 Z M 129.851562 141.742188 " fill-opacity="1" fill-rule="nonzero"/></g><path fill="#ffffff" d="M 187.59375 242.222656 C 187.15625 242.234375 186.742188 242.152344 186.34375 241.972656 C 141.519531 222.390625 140.671875 155.296875 140.671875 152.453125 C 140.671875 152.039062 140.753906 151.640625 140.910156 151.257812 C 141.070312 150.875 141.296875 150.539062 141.589844 150.246094 C 141.882812 149.953125 142.222656 149.726562 142.605469 149.570312 C 142.988281 149.410156 143.386719 149.332031 143.800781 149.332031 C 165.699219 149.332031 185.214844 133.714844 185.402344 133.464844 C 185.980469 133.003906 186.636719 132.773438 187.375 132.777344 L 187.875 132.777344 C 188.613281 132.773438 189.269531 133.003906 189.847656 133.464844 C 190.035156 133.621094 209.582031 149.082031 231.449219 149.332031 C 231.863281 149.332031 232.261719 149.410156 232.644531 149.570312 C 233.027344 149.726562 233.367188 149.953125 233.660156 150.246094 C 233.953125 150.539062 234.179688 150.875 234.339844 151.257812 C 234.496094 151.640625 234.578125 152.039062 234.578125 152.453125 C 234.578125 155.296875 233.734375 222.390625 188.90625 241.972656 C 188.488281 242.160156 188.050781 242.246094 187.59375 242.222656 Z M 146.929688 155.453125 C 147.648438 168.414062 152.683594 219.296875 187.59375 235.695312 C 222.472656 219.296875 227.445312 168.414062 228.257812 155.453125 C 209.207031 154.234375 192.910156 143.460938 187.59375 139.617188 C 182.371094 143.460938 166.074219 154.234375 146.929688 155.453125 Z M 146.929688 155.453125 " fill-opacity="1" fill-rule="nonzero"/><path fill="#ffffff" d="M 201.011719 184.875 L 174.175781 184.875 C 173.757812 184.875 173.359375 184.796875 172.976562 184.636719 C 172.59375 184.480469 172.253906 184.253906 171.960938 183.960938 C 171.667969 183.667969 171.441406 183.332031 171.285156 182.949219 C 171.125 182.566406 171.046875 182.167969 171.046875 181.753906 L 171.046875 175.503906 C 171.050781 174.976562 171.082031 174.449219 171.140625 173.921875 C 171.195312 173.394531 171.277344 172.871094 171.386719 172.351562 C 171.492188 171.835938 171.625 171.324219 171.785156 170.816406 C 171.941406 170.3125 172.125 169.8125 172.332031 169.328125 C 172.539062 168.839844 172.769531 168.363281 173.019531 167.894531 C 173.273438 167.429688 173.550781 166.976562 173.847656 166.539062 C 174.144531 166.101562 174.460938 165.679688 174.800781 165.269531 C 175.140625 164.863281 175.496094 164.472656 175.875 164.101562 C 176.25 163.726562 176.644531 163.375 177.058594 163.039062 C 177.46875 162.703125 177.894531 162.390625 178.335938 162.097656 C 178.78125 161.804688 179.234375 161.535156 179.703125 161.285156 C 180.171875 161.039062 180.652344 160.8125 181.144531 160.613281 C 181.632812 160.410156 182.132812 160.234375 182.640625 160.082031 C 183.148438 159.929688 183.664062 159.800781 184.183594 159.699219 C 184.703125 159.59375 185.226562 159.519531 185.753906 159.464844 C 186.285156 159.414062 186.8125 159.390625 187.34375 159.390625 L 187.84375 159.390625 C 188.378906 159.390625 188.910156 159.414062 189.441406 159.46875 C 189.972656 159.519531 190.5 159.597656 191.023438 159.703125 C 191.546875 159.804688 192.0625 159.933594 192.574219 160.089844 C 193.085938 160.246094 193.585938 160.421875 194.082031 160.628906 C 194.574219 160.832031 195.054688 161.058594 195.527344 161.308594 C 195.996094 161.5625 196.453125 161.835938 196.898438 162.132812 C 197.34375 162.425781 197.769531 162.746094 198.183594 163.082031 C 198.59375 163.421875 198.992188 163.777344 199.367188 164.15625 C 199.746094 164.53125 200.101562 164.925781 200.441406 165.339844 C 200.78125 165.75 201.097656 166.179688 201.394531 166.621094 C 201.691406 167.0625 201.964844 167.519531 202.214844 167.992188 C 202.46875 168.460938 202.695312 168.941406 202.902344 169.433594 C 203.105469 169.925781 203.285156 170.429688 203.4375 170.9375 C 203.59375 171.449219 203.722656 171.964844 203.828125 172.488281 C 203.933594 173.011719 204.011719 173.535156 204.0625 174.066406 C 204.113281 174.597656 204.140625 175.128906 204.140625 175.660156 L 204.140625 181.910156 C 204.121094 182.308594 204.027344 182.691406 203.859375 183.054688 C 203.691406 183.421875 203.460938 183.742188 203.171875 184.015625 C 202.878906 184.292969 202.546875 184.503906 202.175781 184.65625 C 201.800781 184.804688 201.414062 184.875 201.011719 184.875 Z M 177.300781 178.628906 L 197.886719 178.628906 L 197.886719 175.503906 C 197.875 174.855469 197.800781 174.210938 197.664062 173.570312 C 197.53125 172.933594 197.332031 172.316406 197.078125 171.71875 C 196.820312 171.117188 196.507812 170.546875 196.140625 170.011719 C 195.769531 169.472656 195.355469 168.972656 194.890625 168.515625 C 194.425781 168.058594 193.917969 167.652344 193.375 167.292969 C 192.828125 166.933594 192.253906 166.628906 191.652344 166.382812 C 191.046875 166.136719 190.425781 165.949219 189.785156 165.824219 C 189.144531 165.699219 188.496094 165.636719 187.84375 165.636719 L 187.34375 165.636719 C 186.683594 165.636719 186.03125 165.699219 185.382812 165.828125 C 184.738281 165.957031 184.109375 166.148438 183.5 166.398438 C 182.890625 166.652344 182.3125 166.960938 181.765625 167.324219 C 181.21875 167.691406 180.710938 168.105469 180.242188 168.574219 C 179.777344 169.039062 179.359375 169.542969 178.996094 170.089844 C 178.628906 170.640625 178.320312 171.21875 178.066406 171.824219 C 177.816406 172.433594 177.625 173.058594 177.496094 173.707031 C 177.367188 174.351562 177.300781 175.003906 177.300781 175.660156 Z M 177.300781 178.628906 " fill-opacity="1" fill-rule="nonzero"/><path fill="#ffffff" d="M 204.359375 210.707031 L 170.828125 210.707031 C 170.414062 210.707031 170.011719 210.628906 169.628906 210.46875 C 169.246094 210.3125 168.910156 210.085938 168.617188 209.792969 C 168.320312 209.5 168.097656 209.160156 167.9375 208.777344 C 167.777344 208.398438 167.699219 208 167.699219 207.582031 L 167.699219 181.753906 C 167.699219 181.339844 167.777344 180.941406 167.9375 180.558594 C 168.097656 180.175781 168.320312 179.835938 168.617188 179.542969 C 168.910156 179.25 169.246094 179.027344 169.628906 178.867188 C 170.011719 178.707031 170.414062 178.628906 170.828125 178.628906 L 204.359375 178.628906 C 204.773438 178.628906 205.175781 178.707031 205.558594 178.867188 C 205.941406 179.027344 206.277344 179.25 206.570312 179.542969 C 206.867188 179.835938 207.089844 180.175781 207.25 180.558594 C 207.410156 180.941406 207.488281 181.339844 207.488281 181.753906 L 207.488281 207.582031 C 207.488281 208 207.410156 208.398438 207.25 208.777344 C 207.089844 209.160156 206.867188 209.5 206.570312 209.792969 C 206.277344 210.085938 205.941406 210.3125 205.558594 210.46875 C 205.175781 210.628906 204.773438 210.707031 204.359375 210.707031 Z M 173.957031 204.460938 L 201.230469 204.460938 L 201.230469 184.875 L 173.957031 184.875 Z M 173.957031 204.460938 " fill-opacity="1" fill-rule="nonzero"/></svg>