<svg xmlns="http://www.w3.org/2000/svg" xmlns:xlink="http://www.w3.org/1999/xlink" width="500" zoomAndPan="magnify" viewBox="0 0 375 374.999991" height="500" preserveAspectRatio="xMidYMid meet" version="1.0"><defs><clipPath id="4769763af6"><path d="M 135 123.75 L 262.5 123.75 L 262.5 229 L 135 229 Z M 135 123.75 " clip-rule="nonzero"/></clipPath><clipPath id="254b06c128"><path d="M 112.5 138 L 248 138 L 248 251.25 L 112.5 251.25 Z M 112.5 138 " clip-rule="nonzero"/></clipPath></defs><g clip-path="url(#4769763af6)"><path fill="#ffffff" d="M 202.5 183.75 C 150 183.75 135 228.75 135 228.75 C 135 146.25 202.5 146.25 202.5 146.25 L 202.5 123.75 L 262.5 168.75 L 202.5 213.75 Z M 202.5 183.75 " fill-opacity="1" fill-rule="nonzero"/></g><g clip-path="url(#254b06c128)"><path fill="#ffffff" d="M 157.5 138.75 L 157.5 146.25 L 120 146.25 L 120 243.75 L 240 243.75 L 240 206.25 L 247.5 206.25 L 247.5 251.25 L 112.5 251.25 L 112.5 138.75 Z M 157.5 138.75 " fill-opacity="1" fill-rule="nonzero"/></g></svg>